<svg width="32" height="32" viewBox="0 0 24 24" fill="none" xmlns="http://www.w3.org/2000/svg">
<style>
  path { fill: oklch(0.39 0.013 84.182) }
  @media (prefers-color-scheme: dark) { path { fill: oklch(0.975 0.002 90) } }
</style>
<path d="M6 0C9.31369 0 12 2.68631 12 6V18C12 21.3137 9.31369 24 6 24C2.68631 24 0 21.3137 0 18C0 14.6863 2.68631 12 6 12C2.68631 12 0 9.31369 0 6C0 2.68631 2.68631 0 6 0ZM18 12C14.6863 12 12 9.31369 12 6C12 2.68631 14.6863 0 18 0C21.3137 0 24 2.68631 24 6V18C24 21.3137 21.3137 24 18 24C14.6863 24 12 21.3137 12 18C12 14.6863 14.6863 12 18 12Z"/>
</svg>
