<svg xmlns="http://www.w3.org/2000/svg" width="112" height="24" fill="none" viewBox="0 0 112 24"><g clip-path="url(#a)"><path fill="#f5f5f5" d="M6 0a6 6 0 0 1 6 6v12a6 6 0 1 1-6-6A6 6 0 0 1 6 0m12 12a6 6 0 1 1 6-6v12a6 6 0 1 1-6-6"/></g><path fill="#f5f5f5" d="M31.65 19V4.908h2.54l4.501 11.23h.137l4.502-11.23h2.53V19h-2.003V8.658h-1.064l2.285-3.36L39.56 19h-1.61L32.44 5.299l2.276 3.36h-1.065V19zm19.557.186q-1.016 0-1.807-.391a3.1 3.1 0 0 1-1.24-1.094q-.45-.713-.45-1.67v-.02q0-.937.46-1.6.459-.675 1.337-1.056.879-.39 2.13-.459l3.906-.234v1.494l-3.623.225q-1.056.058-1.573.459-.517.4-.517 1.094v.02q0 .72.547 1.132.546.4 1.406.4.771 0 1.386-.312.615-.323.967-.86a2.2 2.2 0 0 0 .352-1.22v-3.272q0-.859-.547-1.328-.537-.468-1.582-.469-.898 0-1.455.332a1.53 1.53 0 0 0-.733.899l-.019.049h-2.031l.01-.088q.117-.87.673-1.533.567-.664 1.485-1.036.927-.38 2.148-.38 1.319 0 2.246.43.937.42 1.426 1.21.488.782.488 1.875V19h-2.11v-1.533h-.136a3.5 3.5 0 0 1-.781.928q-.469.38-1.065.585-.596.206-1.298.206m12.046 3.525q-1.338 0-2.324-.371-.987-.372-1.572-1.026a2.95 2.95 0 0 1-.713-1.513v-.04h2.138l.02.03q.147.537.781.879.645.342 1.69.342 1.299 0 2.021-.606.723-.596.723-1.68v-1.923h-.137a3.4 3.4 0 0 1-.8.986 3.5 3.5 0 0 1-1.104.615q-.626.205-1.358.205-1.338 0-2.324-.644-.975-.655-1.513-1.807t-.538-2.676v-.02q0-1.532.538-2.694.546-1.172 1.533-1.827.986-.654 2.343-.654.743 0 1.358.234.624.235 1.094.674.478.43.79 1.026h.108V8.473h2.12v10.293q-.001 1.2-.596 2.08-.596.888-1.69 1.377-1.094.488-2.588.488m-.049-5.85q.879 0 1.514-.42.635-.429.977-1.191.351-.762.351-1.758v-.02q0-1.006-.352-1.767a2.7 2.7 0 0 0-.976-1.182q-.635-.43-1.514-.43t-1.504.43q-.624.42-.957 1.182t-.332 1.768v.01q0 1.015.332 1.777.332.752.957 1.181.625.42 1.504.42M70.397 19V8.473h2.12V19zm1.065-12.344q-.538 0-.928-.38a1.27 1.27 0 0 1-.38-.919q0-.546.38-.918.39-.38.928-.38.546 0 .927.38.381.372.381.918 0 .528-.38.918-.382.381-.928.381m7.779 12.55q-1.534 0-2.647-.665-1.113-.674-1.719-1.904-.595-1.23-.595-2.92v-.02q0-1.67.595-2.89.606-1.222 1.72-1.875 1.112-.664 2.636-.664 1.338 0 2.295.478.966.469 1.533 1.28.567.81.693 1.826l.01.058h-2.04l-.01-.039a2.3 2.3 0 0 0-.802-1.299q-.624-.527-1.67-.527-.869 0-1.493.44-.626.438-.967 1.26-.332.82-.332 1.952v.02q0 1.162.342 1.992.341.83.966 1.28.626.439 1.485.439.995 0 1.611-.46.615-.457.85-1.308l.02-.058h2.03l-.01.078A4.34 4.34 0 0 1 83 17.506a3.9 3.9 0 0 1-1.513 1.25q-.938.45-2.246.45m12.378.116q-2.05 0-3.525-.898-1.475-.909-2.276-2.559-.79-1.65-.79-3.906v-.02q0-2.265.8-3.906.81-1.65 2.285-2.549 1.485-.898 3.506-.898 2.031 0 3.506.898 1.475.9 2.275 2.55.801 1.65.801 3.906v.019q0 2.256-.8 3.906-.791 1.65-2.276 2.559-1.475.898-3.506.898m0-1.943q1.338 0 2.305-.674.976-.674 1.504-1.885.527-1.22.527-2.861v-.02q0-1.65-.527-2.86-.528-1.222-1.504-1.886-.977-.663-2.305-.664-1.327 0-2.305.664-.975.664-1.513 1.875-.537 1.212-.537 2.872v.019q0 1.641.527 2.861.528 1.221 1.504 1.895.977.664 2.324.664m10.758-2.871-.079-2.92h.391l5.791-6.68h2.598l-5.596 6.338-.957.8zM100.355 19V4.908h2.197V19zm8.447 0-4.892-6.719 1.553-1.494L111.537 19z"/><defs><clipPath id="a"><path fill="#fff" d="M0 0h24v24H0z"/></clipPath></defs></svg>